<?xml version="1.0" encoding="UTF-8"?>
<!DOCTYPE svg PUBLIC "-//W3C//DTD SVG 1.1//EN" "http://www.w3.org/Graphics/SVG/1.1/DTD/svg11.dtd">
<svg xmlns="http://www.w3.org/2000/svg" version="1.1" width="150px" height="150px" style="shape-rendering:geometricPrecision; text-rendering:geometricPrecision; image-rendering:optimizeQuality; fill-rule:evenodd; clip-rule:evenodd" xmlns:xlink="http://www.w3.org/1999/xlink">
<g><path style="opacity:1" fill="#95c268" d="M 82.5,4.5 C 83.8333,5.16667 85.1667,5.83333 86.5,6.5C 85.4863,7.67373 84.153,8.3404 82.5,8.5C 78.8316,7.44265 78.8316,6.10931 82.5,4.5 Z"/></g>
<g><path style="opacity:1" fill="#599532" d="M 82.5,4.5 C 78.8316,6.10931 78.8316,7.44265 82.5,8.5C 80.7274,9.89232 78.7274,11.059 76.5,12C 73.1502,11.5008 69.8169,11.6675 66.5,12.5C 61.9035,11.9382 61.5702,10.7715 65.5,9C 64.4293,8.14825 63.4293,7.31491 62.5,6.5C 66.4734,4.51328 70.4734,2.51328 74.5,0.5C 77.1932,1.84661 79.8599,3.17994 82.5,4.5 Z"/></g>
<g><path style="opacity:1" fill="#88b45b" d="M 78.5,15.5 C 79.9217,15.7086 81.255,16.2086 82.5,17C 78.8317,20.7302 74.8317,21.5635 70.5,19.5C 72.8485,17.659 75.5152,16.3257 78.5,15.5 Z"/></g>
<g><path style="opacity:1" fill="#64a03d" d="M 62.5,6.5 C 63.4293,7.31491 64.4293,8.14825 65.5,9C 61.5702,10.7715 61.9035,11.9382 66.5,12.5C 69.8169,11.6675 73.1502,11.5008 76.5,12C 78.7274,11.059 80.7274,9.89232 82.5,8.5C 84.153,8.3404 85.4863,7.67373 86.5,6.5C 93.6922,9.92819 100.692,13.5949 107.5,17.5C 104.853,18.8242 102.186,18.8242 99.5,17.5C 97.8295,17.6682 96.4961,18.3349 95.5,19.5C 92.7036,16.9817 90.0369,16.9817 87.5,19.5C 83.0888,18.3526 82.7554,16.8526 86.5,15C 83.587,12.9089 80.9203,13.0756 78.5,15.5C 75.5152,16.3257 72.8485,17.659 70.5,19.5C 68.8297,19.7512 67.3297,20.4178 66,21.5C 64.8873,20.695 63.7206,20.0283 62.5,19.5C 64.9422,17.7742 67.6089,16.2742 70.5,15C 67.5398,12.9478 64.7065,13.1145 62,15.5C 60.6871,14.4272 59.1871,13.7605 57.5,13.5C 54.7213,14.3888 52.0546,15.5555 49.5,17C 51.0806,17.7065 52.5806,18.5399 54,19.5C 56.623,16.8763 59.123,16.8763 61.5,19.5C 56.3682,21.8995 51.3682,24.5662 46.5,27.5C 47.2427,28.1818 47.9094,28.8485 48.5,29.5C 46.2314,30.9758 43.8981,32.4758 41.5,34C 46.0346,35.9077 50.0346,35.0743 53.5,31.5C 55.153,31.3404 56.4863,30.6737 57.5,29.5C 58.8333,30.1667 60.1667,30.8333 61.5,31.5C 59.2314,32.9758 56.8981,34.4758 54.5,36C 56.8599,37.1799 59.1932,38.3466 61.5,39.5C 59.1685,41.3325 56.5018,42.6659 53.5,43.5C 50.8333,42.5 48.1667,41.5 45.5,40.5C 42.7213,41.3888 40.0546,42.5555 37.5,44C 38.5786,44.956 39.7453,45.7894 41,46.5C 42.913,44.8131 45.0797,44.3131 47.5,45C 50.8333,46.6667 54.1667,48.3333 57.5,50C 56.5,50.8333 55.5,51.6667 54.5,52.5C 56.8333,54 59.1667,55.5 61.5,57C 60.4734,57.5133 59.4734,58.0133 58.5,58.5C 45.5157,52.6745 32.849,46.3412 20.5,39.5C 24.5977,37.9523 28.5977,36.1189 32.5,34C 31.6721,33.0853 30.6721,32.4186 29.5,32C 31.3359,30.581 33.3359,29.4143 35.5,28.5C 36.8333,27.8333 36.8333,27.1667 35.5,26.5C 34.7065,26.0688 33.8732,25.7355 33,25.5C 28.9462,27.11 25.1128,29.11 21.5,31.5C 22.5,32.3333 23.5,33.1667 24.5,34C 21.9289,35.4538 19.2622,36.6205 16.5,37.5C 13.5152,36.6743 10.8485,35.341 8.5,33.5C 26.5,24.5 44.5,15.5 62.5,6.5 Z"/></g>
<g><path style="opacity:1" fill="#89b55c" d="M 62.5,19.5 C 62.1667,19.5 61.8333,19.5 61.5,19.5C 59.123,16.8763 56.623,16.8763 54,19.5C 52.5806,18.5399 51.0806,17.7065 49.5,17C 52.0546,15.5555 54.7213,14.3888 57.5,13.5C 59.1871,13.7605 60.6871,14.4272 62,15.5C 64.7065,13.1145 67.5398,12.9478 70.5,15C 67.6089,16.2742 64.9422,17.7742 62.5,19.5 Z"/></g>
<g><path style="opacity:1" fill="#82ae55" d="M 20.5,39.5 C 18.847,39.3404 17.5137,38.6737 16.5,37.5C 19.2622,36.6205 21.9289,35.4538 24.5,34C 23.5,33.1667 22.5,32.3333 21.5,31.5C 25.1128,29.11 28.9462,27.11 33,25.5C 33.8732,25.7355 34.7065,26.0688 35.5,26.5C 36.8333,27.1667 36.8333,27.8333 35.5,28.5C 33.3359,29.4143 31.3359,30.581 29.5,32C 30.6721,32.4186 31.6721,33.0853 32.5,34C 28.5977,36.1189 24.5977,37.9523 20.5,39.5 Z"/></g>
<g><path style="opacity:1" fill="#5f9b38" d="M 87.5,19.5 C 92.8068,22.1534 98.1401,24.8201 103.5,27.5C 104.672,27.0814 105.672,26.4147 106.5,25.5C 102.966,23.2336 99.2996,21.2336 95.5,19.5C 96.4961,18.3349 97.8295,17.6682 99.5,17.5C 102.186,18.8242 104.853,18.8242 107.5,17.5C 114.484,20.3255 121.151,23.6588 127.5,27.5C 125.231,28.9758 122.898,30.4758 120.5,32C 124.564,33.5754 124.397,34.742 120,35.5C 115.603,34.742 115.436,33.5754 119.5,32C 118.421,31.044 117.255,30.2106 116,29.5C 113.417,30.8742 110.917,32.3742 108.5,34C 109.672,34.4186 110.672,35.0853 111.5,36C 108.945,37.4445 106.279,38.6112 103.5,39.5C 100.721,38.6112 98.0546,37.4445 95.5,36C 99.5,34.6667 99.5,33.3333 95.5,32C 99.3609,30.3427 99.3609,28.8427 95.5,27.5C 91.0475,28.6819 90.7142,30.1819 94.5,32C 90.5,33.3333 90.5,34.6667 94.5,36C 93.255,36.7914 91.9217,37.2914 90.5,37.5C 89.2794,36.9717 88.1127,36.305 87,35.5C 85.8873,36.305 84.7206,36.9717 83.5,37.5C 80.6161,39.8047 77.6161,39.9714 74.5,38C 78.5,36 82.5,34 86.5,32C 84.1667,30.5 81.8333,29 79.5,27.5C 81.8333,26 84.1667,24.5 86.5,23C 82.4217,21.3389 78.755,22.1722 75.5,25.5C 78.1667,26.8333 78.1667,28.1667 75.5,29.5C 76.1667,30.1667 76.8333,30.8333 77.5,31.5C 74.0084,35.2088 70.1751,35.8755 66,33.5C 64.7453,34.2106 63.5786,35.044 62.5,36C 65.1667,37.3333 67.8333,38.6667 70.5,40C 67.3839,41.9714 64.3839,41.8047 61.5,39.5C 59.1932,38.3466 56.8599,37.1799 54.5,36C 56.8981,34.4758 59.2314,32.9758 61.5,31.5C 65.2496,31.1593 65.9163,29.826 63.5,27.5C 66.0251,25.4508 65.5251,24.1175 62,23.5C 59.2776,24.4441 56.7776,25.7775 54.5,27.5C 55.3569,28.4252 56.3569,29.0919 57.5,29.5C 56.4863,30.6737 55.153,31.3404 53.5,31.5C 51.9505,30.5592 50.2838,29.8925 48.5,29.5C 47.9094,28.8485 47.2427,28.1818 46.5,27.5C 51.3682,24.5662 56.3682,21.8995 61.5,19.5C 61.8333,19.5 62.1667,19.5 62.5,19.5C 63.7206,20.0283 64.8873,20.695 66,21.5C 67.3297,20.4178 68.8297,19.7512 70.5,19.5C 74.8317,21.5635 78.8317,20.7302 82.5,17C 81.255,16.2086 79.9217,15.7086 78.5,15.5C 80.9203,13.0756 83.587,12.9089 86.5,15C 82.7554,16.8526 83.0888,18.3526 87.5,19.5 Z"/></g>
<g><path style="opacity:1" fill="#8bb75e" d="M 61.5,31.5 C 60.1667,30.8333 58.8333,30.1667 57.5,29.5C 56.3569,29.0919 55.3569,28.4252 54.5,27.5C 56.7776,25.7775 59.2776,24.4441 62,23.5C 65.5251,24.1175 66.0251,25.4508 63.5,27.5C 65.9163,29.826 65.2496,31.1593 61.5,31.5 Z"/></g>
<g><path style="opacity:1" fill="#83af56" d="M 95.5,19.5 C 99.2996,21.2336 102.966,23.2336 106.5,25.5C 105.672,26.4147 104.672,27.0814 103.5,27.5C 98.1401,24.8201 92.8068,22.1534 87.5,19.5C 90.0369,16.9817 92.7036,16.9817 95.5,19.5 Z"/></g>
<g><path style="opacity:1" fill="#8cb85f" d="M 48.5,29.5 C 50.2838,29.8925 51.9505,30.5592 53.5,31.5C 50.0346,35.0743 46.0346,35.9077 41.5,34C 43.8981,32.4758 46.2314,30.9758 48.5,29.5 Z"/></g>
<g><path style="opacity:1" fill="#87b45b" d="M 83.5,37.5 C 84.2905,38.4013 85.2905,39.0679 86.5,39.5C 85.4863,40.6737 84.153,41.3404 82.5,41.5C 79.7449,40.0198 77.0782,40.1865 74.5,42C 76.0664,42.6082 77.3998,43.4415 78.5,44.5C 77.1825,44.821 75.8492,45.1543 74.5,45.5C 71.8333,44.5 69.1667,43.5 66.5,42.5C 63.7213,43.3888 61.0546,44.5555 58.5,46C 62.5,47.3333 62.5,48.6667 58.5,50C 60.8333,51.5 63.1667,53 65.5,54.5C 61.393,56.4292 61.5596,57.7625 66,58.5C 70.561,56.3145 74.7277,57.1479 78.5,61C 75.9289,62.4538 73.2622,63.6205 70.5,64.5C 66.1822,63.0078 62.1822,61.0078 58.5,58.5C 59.4734,58.0133 60.4734,57.5133 61.5,57C 59.1667,55.5 56.8333,54 54.5,52.5C 55.5,51.6667 56.5,50.8333 57.5,50C 54.1667,48.3333 50.8333,46.6667 47.5,45C 45.0797,44.3131 42.913,44.8131 41,46.5C 39.7453,45.7894 38.5786,44.956 37.5,44C 40.0546,42.5555 42.7213,41.3888 45.5,40.5C 48.1667,41.5 50.8333,42.5 53.5,43.5C 56.5018,42.6659 59.1685,41.3325 61.5,39.5C 64.3839,41.8047 67.3839,41.9714 70.5,40C 67.8333,38.6667 65.1667,37.3333 62.5,36C 63.5786,35.044 64.7453,34.2106 66,33.5C 70.1751,35.8755 74.0084,35.2088 77.5,31.5C 76.8333,30.8333 76.1667,30.1667 75.5,29.5C 78.1667,28.1667 78.1667,26.8333 75.5,25.5C 78.755,22.1722 82.4217,21.3389 86.5,23C 84.1667,24.5 81.8333,26 79.5,27.5C 81.8333,29 84.1667,30.5 86.5,32C 82.5,34 78.5,36 74.5,38C 77.6161,39.9714 80.6161,39.8047 83.5,37.5 Z"/></g>
<g><path style="opacity:1" fill="#9ecb71" d="M 90.5,37.5 C 89.7095,38.4013 88.7095,39.0679 87.5,39.5C 87.1667,39.5 86.8333,39.5 86.5,39.5C 85.2905,39.0679 84.2905,38.4013 83.5,37.5C 84.7206,36.9717 85.8873,36.305 87,35.5C 88.1127,36.305 89.2794,36.9717 90.5,37.5 Z"/></g>
<g><path style="opacity:1" fill="#7aaf50" d="M 127.5,27.5 C 130.622,28.5612 133.622,29.8946 136.5,31.5C 133.997,34.0375 131.33,34.0375 128.5,31.5C 123.306,33.1695 123.306,34.6695 128.5,36C 126.5,37 124.5,38 122.5,39C 120.08,39.6869 117.913,39.1869 116,37.5C 114.581,38.4601 113.081,39.2935 111.5,40C 112.833,40.6667 114.167,41.3333 115.5,42C 114.429,42.8518 113.429,43.6851 112.5,44.5C 110.847,44.6596 109.514,45.3263 108.5,46.5C 105.694,44.3813 102.694,44.048 99.5,45.5C 98.1667,45.1667 96.8333,44.8333 95.5,44.5C 96.5137,43.3263 97.847,42.6596 99.5,42.5C 102.255,43.9802 104.922,43.8135 107.5,42C 104.922,40.1865 102.255,40.0198 99.5,41.5C 96.8527,40.1758 94.186,40.1758 91.5,41.5C 89.8295,41.3318 88.4961,40.6651 87.5,39.5C 88.7095,39.0679 89.7095,38.4013 90.5,37.5C 91.9217,37.2914 93.255,36.7914 94.5,36C 90.5,34.6667 90.5,33.3333 94.5,32C 90.7142,30.1819 91.0475,28.6819 95.5,27.5C 99.3609,28.8427 99.3609,30.3427 95.5,32C 99.5,33.3333 99.5,34.6667 95.5,36C 98.0546,37.4445 100.721,38.6112 103.5,39.5C 106.279,38.6112 108.945,37.4445 111.5,36C 110.672,35.0853 109.672,34.4186 108.5,34C 110.917,32.3742 113.417,30.8742 116,29.5C 117.255,30.2106 118.421,31.044 119.5,32C 115.436,33.5754 115.603,34.742 120,35.5C 124.397,34.742 124.564,33.5754 120.5,32C 122.898,30.4758 125.231,28.9758 127.5,27.5 Z"/></g>
<g><path style="opacity:1" fill="#89b55c" d="M 36.5,35.5 C 39.2865,37.6114 42.2865,37.9448 45.5,36.5C 46.938,36.7189 48.2713,37.2189 49.5,38C 45.5796,38.8657 41.5796,39.3657 37.5,39.5C 32.5994,38.9308 32.266,37.5975 36.5,35.5 Z"/></g>
<g><path style="opacity:1" fill="#5f9b38" d="M 136.5,31.5 C 137.833,32.1667 139.167,32.8333 140.5,33.5C 132.358,38.0719 124.025,42.4052 115.5,46.5C 114.71,45.5987 113.71,44.9321 112.5,44.5C 113.429,43.6851 114.429,42.8518 115.5,42C 114.167,41.3333 112.833,40.6667 111.5,40C 113.081,39.2935 114.581,38.4601 116,37.5C 117.913,39.1869 120.08,39.6869 122.5,39C 124.5,38 126.5,37 128.5,36C 123.306,34.6695 123.306,33.1695 128.5,31.5C 131.33,34.0375 133.997,34.0375 136.5,31.5 Z"/></g>
<g><path style="opacity:1" fill="#a4d177" d="M 99.5,42.5 C 99.5,42.1667 99.5,41.8333 99.5,41.5C 102.255,40.0198 104.922,40.1865 107.5,42C 104.922,43.8135 102.255,43.9802 99.5,42.5 Z"/></g>
<g><path style="opacity:1" fill="#2e471c" d="M 140.5,33.5 C 141.479,36.6248 141.813,39.9581 141.5,43.5C 137.624,44.8858 135.624,47.7192 135.5,52C 133.254,53.0395 131.087,54.2062 129,55.5C 128.798,53.7444 128.298,52.0777 127.5,50.5C 125.119,52.0982 123.952,54.4315 124,57.5C 120.956,58.8029 119.789,61.1362 120.5,64.5C 119.279,65.0283 118.113,65.695 117,66.5C 116.667,64.8333 116.333,63.1667 116,61.5C 112.642,62.9998 110.809,65.6665 110.5,69.5C 109.833,69.8333 109.167,70.1667 108.5,70.5C 107.676,67.2152 107.176,63.8818 107,60.5C 106,61.1667 105,61.8333 104,62.5C 104.048,65.5685 102.881,67.9018 100.5,69.5C 99.6764,66.2152 99.1764,62.8818 99,59.5C 98,60.1667 97,60.8333 96,61.5C 95.5007,66.4889 95.3341,71.4889 95.5,76.5C 95.5,76.8333 95.5,77.1667 95.5,77.5C 94.4168,77.5394 93.4168,77.8728 92.5,78.5C 91.8333,77.1667 91.1667,75.8333 90.5,74.5C 87.9206,75.7061 85.4206,77.0394 83,78.5C 82.7978,76.7444 82.2978,75.0777 81.5,73.5C 79.1186,75.0982 77.9519,77.4315 78,80.5C 76.8873,81.305 75.7206,81.9717 74.5,82.5C 74.5,80.5 74.5,78.5 74.5,76.5C 74.5,73.1667 74.5,69.8333 74.5,66.5C 80.1511,64.3412 85.4844,61.6745 90.5,58.5C 94.8178,57.0078 98.8178,55.0078 102.5,52.5C 104.284,52.1075 105.95,51.4408 107.5,50.5C 108.833,49.8333 110.167,49.1667 111.5,48.5C 112.833,47.8333 114.167,47.1667 115.5,46.5C 124.025,42.4052 132.358,38.0719 140.5,33.5 Z"/></g>
<g><path style="opacity:1" fill="#a1ce74" d="M 95.5,44.5 C 96.8333,44.8333 98.1667,45.1667 99.5,45.5C 98.0351,46.7368 96.3684,47.7368 94.5,48.5C 90.2992,46.3883 90.6326,45.055 95.5,44.5 Z"/></g>
<g><path style="opacity:1" fill="#9dca70" d="M 112.5,44.5 C 113.71,44.9321 114.71,45.5987 115.5,46.5C 114.167,47.1667 112.833,47.8333 111.5,48.5C 110.71,47.5987 109.71,46.9321 108.5,46.5C 109.514,45.3263 110.847,44.6596 112.5,44.5 Z"/></g>
<g><path style="opacity:1" fill="#372619" d="M 16.5,53.5 C 15.1667,52.8333 13.8333,52.1667 12.5,51.5C 12.2148,49.712 12.5481,48.0453 13.5,46.5C 16.0289,48.0625 17.0289,50.3959 16.5,53.5 Z"/></g>
<g><path style="opacity:1" fill="#73ab4a" d="M 82.5,41.5 C 83.6002,42.5585 84.9336,43.3918 86.5,44C 82.5,45.3333 82.5,46.6667 86.5,48C 82.86,51.7084 78.86,52.5417 74.5,50.5C 70.14,52.5417 66.14,51.7084 62.5,48C 65.1272,45.9833 67.6272,46.1499 70,48.5C 73,45.8333 76,45.8333 79,48.5C 83.8323,46.5059 83.6657,45.1726 78.5,44.5C 77.3998,43.4415 76.0664,42.6082 74.5,42C 77.0782,40.1865 79.7449,40.0198 82.5,41.5 Z"/></g>
<g><path style="opacity:1" fill="#6ca845" d="M 108.5,46.5 C 109.71,46.9321 110.71,47.5987 111.5,48.5C 110.167,49.1667 108.833,49.8333 107.5,50.5C 105.247,47.876 102.913,47.876 100.5,50.5C 101.243,51.1818 101.909,51.8485 102.5,52.5C 98.8178,55.0078 94.8178,57.0078 90.5,58.5C 89.2905,58.0679 88.2905,57.4013 87.5,56.5C 89.9687,55.4314 92.3021,54.0981 94.5,52.5C 93.6431,51.5748 92.6431,50.9081 91.5,50.5C 92.2905,49.5987 93.2905,48.9321 94.5,48.5C 96.3684,47.7368 98.0351,46.7368 99.5,45.5C 102.694,44.048 105.694,44.3813 108.5,46.5 Z"/></g>
<g><path style="opacity:1" fill="#97c36a" d="M 107.5,50.5 C 105.95,51.4408 104.284,52.1075 102.5,52.5C 101.909,51.8485 101.243,51.1818 100.5,50.5C 102.913,47.876 105.247,47.876 107.5,50.5 Z"/></g>
<g><path style="opacity:1" fill="#372619" d="M 7.5,49.5 C 9.2838,49.8925 10.9505,50.5592 12.5,51.5C 12.5,53.1667 12.5,54.8333 12.5,56.5C 10.9505,55.5592 9.2838,54.8925 7.5,54.5C 7.5,52.8333 7.5,51.1667 7.5,49.5 Z"/></g>
<g><path style="opacity:1" fill="#372619" d="M 41.5,70.5 C 37.0424,68.7712 32.7091,66.7712 28.5,64.5C 28.1725,59.456 28.5059,54.456 29.5,49.5C 30.1667,49.8333 30.8333,50.1667 31.5,50.5C 32.197,54.3771 32.8637,58.2104 33.5,62C 36.6436,63.8751 38.1436,62.7084 38,58.5C 39,59.1667 40,59.8333 41,60.5C 41.4983,63.8168 41.665,67.1501 41.5,70.5 Z"/></g>
<g><path style="opacity:1" fill="#434443" d="M 12.5,51.5 C 13.8333,52.1667 15.1667,52.8333 16.5,53.5C 16.5,55.1667 16.5,56.8333 16.5,58.5C 15.1667,57.8333 13.8333,57.1667 12.5,56.5C 12.5,54.8333 12.5,53.1667 12.5,51.5 Z"/></g>
<g><path style="opacity:1" fill="#5a9633" d="M 86.5,39.5 C 86.8333,39.5 87.1667,39.5 87.5,39.5C 88.4961,40.6651 89.8295,41.3318 91.5,41.5C 94.186,40.1758 96.8527,40.1758 99.5,41.5C 99.5,41.8333 99.5,42.1667 99.5,42.5C 97.847,42.6596 96.5137,43.3263 95.5,44.5C 90.6326,45.055 90.2992,46.3883 94.5,48.5C 93.2905,48.9321 92.2905,49.5987 91.5,50.5C 88.5766,51.295 85.9099,52.6284 83.5,54.5C 84.5769,55.7051 85.9102,56.3718 87.5,56.5C 88.2905,57.4013 89.2905,58.0679 90.5,58.5C 85.4844,61.6745 80.1511,64.3412 74.5,66.5C 72.847,66.3404 71.5137,65.6737 70.5,64.5C 73.2622,63.6205 75.9289,62.4538 78.5,61C 74.7277,57.1479 70.561,56.3145 66,58.5C 61.5596,57.7625 61.393,56.4292 65.5,54.5C 63.1667,53 60.8333,51.5 58.5,50C 62.5,48.6667 62.5,47.3333 58.5,46C 61.0546,44.5555 63.7213,43.3888 66.5,42.5C 69.1667,43.5 71.8333,44.5 74.5,45.5C 75.8492,45.1543 77.1825,44.821 78.5,44.5C 83.6657,45.1726 83.8323,46.5059 79,48.5C 76,45.8333 73,45.8333 70,48.5C 67.6272,46.1499 65.1272,45.9833 62.5,48C 66.14,51.7084 70.14,52.5417 74.5,50.5C 78.86,52.5417 82.86,51.7084 86.5,48C 82.5,46.6667 82.5,45.3333 86.5,44C 84.9336,43.3918 83.6002,42.5585 82.5,41.5C 84.153,41.3404 85.4863,40.6737 86.5,39.5 Z"/></g>
<g><path style="opacity:1" fill="#90bc63" d="M 91.5,50.5 C 92.6431,50.9081 93.6431,51.5748 94.5,52.5C 92.3021,54.0981 89.9687,55.4314 87.5,56.5C 85.9102,56.3718 84.5769,55.7051 83.5,54.5C 85.9099,52.6284 88.5766,51.295 91.5,50.5 Z"/></g>
<g><path style="opacity:1" fill="#372619" d="M 16.5,53.5 C 19.0524,54.6935 21.5524,56.0268 24,57.5C 24.4935,59.1341 24.6602,60.8008 24.5,62.5C 21.8333,61.1667 19.1667,59.8333 16.5,58.5C 16.5,56.8333 16.5,55.1667 16.5,53.5 Z"/></g>
<g><path style="opacity:1" fill="#2f2117" d="M 141.5,43.5 C 141.5,48.8333 141.5,54.1667 141.5,59.5C 139.83,59.7512 138.33,60.4178 137,61.5C 136.667,64.8333 136.333,68.1667 136,71.5C 132.619,72.8916 131.786,75.2249 133.5,78.5C 134.167,78.1667 134.833,77.8333 135.5,77.5C 136.167,80.5 136.833,83.5 137.5,86.5C 138.86,85.8201 140.193,85.1534 141.5,84.5C 141.5,87.8333 141.5,91.1667 141.5,94.5C 138.86,95.8201 136.193,97.1534 133.5,98.5C 132.548,96.9547 132.215,95.288 132.5,93.5C 136.042,92.8165 137.042,90.8165 135.5,87.5C 134.583,88.1272 133.583,88.4606 132.5,88.5C 132.762,87.0222 132.429,85.6888 131.5,84.5C 124.994,86.5535 122.994,90.8869 125.5,97.5C 126.167,97.1667 126.833,96.8333 127.5,96.5C 128.167,97.8333 128.833,99.1667 129.5,100.5C 131.33,98.9731 132.33,99.4731 132.5,102C 132.291,103.871 131.291,105.038 129.5,105.5C 128.359,107.421 128.192,109.421 129,111.5C 131.15,109.148 132.316,109.315 132.5,112C 132.415,113.107 132.081,114.107 131.5,115C 129.254,116.039 127.087,117.206 125,118.5C 124.506,120.134 124.34,121.801 124.5,123.5C 121.833,124.833 119.167,126.167 116.5,127.5C 116.66,125.801 116.494,124.134 116,122.5C 111.69,124.734 107.524,127.068 103.5,129.5C 101.847,129.66 100.514,130.326 99.5,131.5C 98.4168,131.539 97.4168,131.873 96.5,132.5C 95.8333,131.167 95.1667,129.833 94.5,128.5C 93.8333,128.833 93.1667,129.167 92.5,129.5C 91.5481,127.955 91.2148,126.288 91.5,124.5C 94.0524,123.307 96.5524,121.973 99,120.5C 99.2022,122.256 99.7022,123.922 100.5,125.5C 103.968,124.63 106.302,122.63 107.5,119.5C 107.633,116.093 106.466,115.76 104,118.5C 102.794,115.153 103.794,112.82 107,111.5C 107.667,108.167 107.667,104.833 107,101.5C 104.913,102.794 102.746,103.961 100.5,105C 99.7511,106.734 99.2511,108.567 99,110.5C 95.8359,113.145 94.6693,112.145 95.5,107.5C 95.5,105.833 95.5,104.167 95.5,102.5C 98.9351,101.511 100.268,99.1778 99.5,95.5C 99.1667,93.8333 98.8333,92.1667 98.5,90.5C 97.5832,91.1272 96.5832,91.4606 95.5,91.5C 95.87,87.8141 94.5367,86.8141 91.5,88.5C 91.5,86.8333 91.5,85.1667 91.5,83.5C 94.6973,82.8876 96.0306,80.8876 95.5,77.5C 95.5,77.1667 95.5,76.8333 95.5,76.5C 99.264,75.1192 102.931,73.4526 106.5,71.5C 107.833,73.1667 107.833,74.8333 106.5,76.5C 103.305,77.4087 100.971,79.2421 99.5,82C 99.8333,82.8333 100.167,83.6667 100.5,84.5C 101.417,83.8728 102.417,83.5394 103.5,83.5C 103.238,84.9778 103.571,86.3112 104.5,87.5C 106.5,86.5 108.5,85.5 110.5,84.5C 111.452,82.9547 111.785,81.288 111.5,79.5C 111.201,77.396 111.534,75.396 112.5,73.5C 115.079,72.2939 117.579,70.9606 120,69.5C 120.494,67.8659 120.66,66.1992 120.5,64.5C 119.789,61.1362 120.956,58.8029 124,57.5C 123.952,54.4315 125.119,52.0982 127.5,50.5C 128.298,52.0777 128.798,53.7444 129,55.5C 131.087,54.2062 133.254,53.0395 135.5,52C 135.624,47.7192 137.624,44.8858 141.5,43.5 Z"/></g>
<g><path style="opacity:1" fill="#466d2b" d="M 8.5,33.5 C 10.8485,35.341 13.5152,36.6743 16.5,37.5C 17.5137,38.6737 18.847,39.3404 20.5,39.5C 32.849,46.3412 45.5157,52.6745 58.5,58.5C 62.1822,61.0078 66.1822,63.0078 70.5,64.5C 71.5137,65.6737 72.847,66.3404 74.5,66.5C 74.5,69.8333 74.5,73.1667 74.5,76.5C 73.4168,76.4606 72.4168,76.1272 71.5,75.5C 70.7022,77.0777 70.2022,78.7444 70,80.5C 67.5524,79.0268 65.0524,77.6935 62.5,76.5C 63.1375,72.5446 61.6375,69.878 58,68.5C 57.7978,70.2556 57.2978,71.9223 56.5,73.5C 55.8333,73.1667 55.1667,72.8333 54.5,72.5C 53.8333,73.8333 53.1667,75.1667 52.5,76.5C 50.5,73.8333 48.5,71.1667 46.5,68.5C 45.8333,69.8333 45.1667,71.1667 44.5,72.5C 43.5832,71.8728 42.5832,71.5394 41.5,71.5C 41.5,71.1667 41.5,70.8333 41.5,70.5C 41.665,67.1501 41.4983,63.8168 41,60.5C 40,59.8333 39,59.1667 38,58.5C 38.1436,62.7084 36.6436,63.8751 33.5,62C 32.8637,58.2104 32.197,54.3771 31.5,50.5C 30.8333,50.1667 30.1667,49.8333 29.5,49.5C 28.5059,54.456 28.1725,59.456 28.5,64.5C 27.1667,63.8333 25.8333,63.1667 24.5,62.5C 24.6602,60.8008 24.4935,59.1341 24,57.5C 21.5524,56.0268 19.0524,54.6935 16.5,53.5C 17.0289,50.3959 16.0289,48.0625 13.5,46.5C 12.5481,48.0453 12.2148,49.712 12.5,51.5C 10.9505,50.5592 9.2838,49.8925 7.5,49.5C 7.17859,43.9738 7.51192,38.6405 8.5,33.5 Z"/></g>
<g><path style="opacity:1" fill="#624630" d="M 16.5,58.5 C 19.1667,59.8333 21.8333,61.1667 24.5,62.5C 24.5,65.8333 24.5,69.1667 24.5,72.5C 21.9476,71.3065 19.4476,69.9732 17,68.5C 16.5017,65.1832 16.335,61.8499 16.5,58.5 Z"/></g>
<g><path style="opacity:1" fill="#241910" d="M 120.5,64.5 C 120.66,66.1992 120.494,67.8659 120,69.5C 117.579,70.9606 115.079,72.2939 112.5,73.5C 111.534,75.396 111.201,77.396 111.5,79.5C 108.515,80.3257 105.849,81.659 103.5,83.5C 102.417,83.5394 101.417,83.8728 100.5,84.5C 100.167,83.6667 99.8333,82.8333 99.5,82C 100.971,79.2421 103.305,77.4087 106.5,76.5C 107.833,74.8333 107.833,73.1667 106.5,71.5C 102.931,73.4526 99.264,75.1192 95.5,76.5C 95.3341,71.4889 95.5007,66.4889 96,61.5C 97,60.8333 98,60.1667 99,59.5C 99.1764,62.8818 99.6764,66.2152 100.5,69.5C 102.881,67.9018 104.048,65.5685 104,62.5C 105,61.8333 106,61.1667 107,60.5C 107.176,63.8818 107.676,67.2152 108.5,70.5C 109.167,70.1667 109.833,69.8333 110.5,69.5C 110.809,65.6665 112.642,62.9998 116,61.5C 116.333,63.1667 116.667,64.8333 117,66.5C 118.113,65.695 119.279,65.0283 120.5,64.5 Z"/></g>
<g><path style="opacity:1" fill="#3f2d1f" d="M 141.5,59.5 C 141.5,67.8333 141.5,76.1667 141.5,84.5C 140.193,85.1534 138.86,85.8201 137.5,86.5C 136.833,83.5 136.167,80.5 135.5,77.5C 134.833,77.8333 134.167,78.1667 133.5,78.5C 131.786,75.2249 132.619,72.8916 136,71.5C 136.333,68.1667 136.667,64.8333 137,61.5C 138.33,60.4178 139.83,59.7512 141.5,59.5 Z"/></g>
<g><path style="opacity:1" fill="#372619" d="M 62.5,76.5 C 61.1932,75.8466 59.8599,75.1799 58.5,74.5C 57.5713,75.6888 57.238,77.0222 57.5,78.5C 54.4633,76.8141 53.13,77.8141 53.5,81.5C 51.0721,80.7878 48.7388,79.7878 46.5,78.5C 45.5713,79.6888 45.238,81.0222 45.5,82.5C 42.8333,81.5 40.1667,80.5 37.5,79.5C 36.1516,78.3994 34.6516,77.3994 33,76.5C 32.3333,74.8333 32.3333,73.1667 33,71.5C 35.4206,72.9606 37.9206,74.2939 40.5,75.5C 41.4287,74.3112 41.762,72.9778 41.5,71.5C 42.5832,71.5394 43.5832,71.8728 44.5,72.5C 45.1667,71.1667 45.8333,69.8333 46.5,68.5C 48.5,71.1667 50.5,73.8333 52.5,76.5C 53.1667,75.1667 53.8333,73.8333 54.5,72.5C 55.1667,72.8333 55.8333,73.1667 56.5,73.5C 57.2978,71.9223 57.7978,70.2556 58,68.5C 61.6375,69.878 63.1375,72.5446 62.5,76.5 Z"/></g>
<g><path style="opacity:1" fill="#545554" d="M 24.5,72.5 C 27.9869,73.4832 29.3202,75.8166 28.5,79.5C 27.1667,78.8333 25.8333,78.1667 24.5,77.5C 24.5,75.8333 24.5,74.1667 24.5,72.5 Z"/></g>
<g><path style="opacity:1" fill="#624730" d="M 7.5,64.5 C 9.17028,64.7512 10.6703,65.4178 12,66.5C 12.1705,71.8642 12.6705,77.1975 13.5,82.5C 14.1667,82.8333 14.8333,83.1667 15.5,83.5C 16.8333,86.8333 16.8333,90.1667 15.5,93.5C 14.8333,93.1667 14.1667,92.8333 13.5,92.5C 12.8333,93.8333 12.1667,95.1667 11.5,96.5C 10.1401,95.8201 8.80678,95.1534 7.5,94.5C 7.5,84.5 7.5,74.5 7.5,64.5 Z"/></g>
<g><path style="opacity:1" fill="#493323" d="M 24.5,62.5 C 25.8333,63.1667 27.1667,63.8333 28.5,64.5C 32.7091,66.7712 37.0424,68.7712 41.5,70.5C 41.5,70.8333 41.5,71.1667 41.5,71.5C 41.762,72.9778 41.4287,74.3112 40.5,75.5C 37.9206,74.2939 35.4206,72.9606 33,71.5C 32.3333,73.1667 32.3333,74.8333 33,76.5C 34.6516,77.3994 36.1516,78.3994 37.5,79.5C 37.2148,81.288 37.5481,82.9547 38.5,84.5C 40.5,85.5 42.5,86.5 44.5,87.5C 45.4519,85.9547 45.7852,84.288 45.5,82.5C 45.238,81.0222 45.5713,79.6888 46.5,78.5C 48.7388,79.7878 51.0721,80.7878 53.5,81.5C 56.6574,84.2355 57.9908,83.2355 57.5,78.5C 57.238,77.0222 57.5713,75.6888 58.5,74.5C 59.8599,75.1799 61.1932,75.8466 62.5,76.5C 61.7893,79.8638 62.956,82.1971 66,83.5C 65.6642,87.144 67.1642,89.4773 70.5,90.5C 70.665,93.8499 70.4983,97.1832 70,100.5C 67.5338,97.7599 66.3671,98.0933 66.5,101.5C 67.9581,104.916 70.6247,106.916 74.5,107.5C 74.8275,112.544 74.4941,117.544 73.5,122.5C 71.1052,121.477 70.1052,122.477 70.5,125.5C 69.4168,125.461 68.4168,125.127 67.5,124.5C 66.8333,125.833 66.1667,127.167 65.5,128.5C 64.8333,128.167 64.1667,127.833 63.5,127.5C 61.6796,131.094 62.6796,133.428 66.5,134.5C 66.6602,136.199 66.4935,137.866 66,139.5C 63.5794,138.039 61.0794,136.706 58.5,135.5C 57.5713,136.689 57.238,138.022 57.5,139.5C 54.5152,138.674 51.8485,137.341 49.5,135.5C 49.7852,133.712 49.4519,132.045 48.5,130.5C 44.9307,128.547 41.264,126.881 37.5,125.5C 33.5081,121.111 31.8415,121.778 32.5,127.5C 31.1667,126.833 29.8333,126.167 28.5,125.5C 29.2107,122.136 28.044,119.803 25,118.5C 25.2249,115.175 23.8916,112.842 21,111.5C 21.3647,116.108 20.0314,117.108 17,114.5C 16.1764,111.118 16.343,107.784 17.5,104.5C 18.1667,104.833 18.8333,105.167 19.5,105.5C 20.1667,104.167 20.8333,102.833 21.5,101.5C 22.1667,101.833 22.8333,102.167 23.5,102.5C 24.1667,104.5 24.8333,106.5 25.5,108.5C 27.5,109.5 29.5,110.5 31.5,111.5C 32.3078,113.423 32.8078,115.423 33,117.5C 35.4206,118.961 37.9206,120.294 40.5,121.5C 42.2145,118.225 41.3811,115.892 38,114.5C 36.6188,109.523 37.7854,108.523 41.5,111.5C 42.8333,112.167 44.1667,112.833 45.5,113.5C 48.0524,114.693 50.5524,116.027 53,117.5C 53.6667,114.167 53.6667,110.833 53,107.5C 50.6667,106.167 48.3333,104.833 46,103.5C 45.5065,105.134 45.3398,106.801 45.5,108.5C 44.1667,107.833 42.8333,107.167 41.5,106.5C 42.3202,102.817 40.9869,100.483 37.5,99.5C 37.6602,97.8008 37.4935,96.1341 37,94.5C 35.3484,93.6006 33.8484,92.6006 32.5,91.5C 32.665,88.1501 32.4983,84.8168 32,81.5C 30.8873,80.695 29.7206,80.0283 28.5,79.5C 29.3202,75.8166 27.9869,73.4832 24.5,72.5C 24.5,69.1667 24.5,65.8333 24.5,62.5 Z"/></g>
<g><path style="opacity:1" fill="#634731" d="M 24.5,77.5 C 25.8333,78.1667 27.1667,78.8333 28.5,79.5C 29.7206,80.0283 30.8873,80.695 32,81.5C 32.4983,84.8168 32.665,88.1501 32.5,91.5C 31.4168,91.4606 30.4168,91.1272 29.5,90.5C 28.8333,88.5 28.1667,86.5 27.5,84.5C 26.8333,84.1667 26.1667,83.8333 25.5,83.5C 24.8333,84.8333 24.1667,86.1667 23.5,87.5C 22.8333,87.1667 22.1667,86.8333 21.5,86.5C 20.8333,84.5 20.1667,82.5 19.5,80.5C 16.807,78.9268 15.9737,76.5934 17,73.5C 19.4476,74.9732 21.9476,76.3065 24.5,77.5 Z"/></g>
<g><path style="opacity:1" fill="#434443" d="M 57.5,78.5 C 57.9908,83.2355 56.6574,84.2355 53.5,81.5C 53.13,77.8141 54.4633,76.8141 57.5,78.5 Z"/></g>
<g><path style="opacity:1" fill="#412f20" d="M 123.5,72.5 C 124.808,76.0187 124.808,79.6853 123.5,83.5C 122.833,83.8333 122.167,84.1667 121.5,84.5C 120.833,86.5 120.167,88.5 119.5,90.5C 116.921,91.7061 114.421,93.0394 112,94.5C 110.684,90.8721 111.851,88.5388 115.5,87.5C 116.325,83.8776 116.825,80.211 117,76.5C 119.314,75.2668 121.481,73.9334 123.5,72.5 Z"/></g>
<g><path style="opacity:1" fill="#271f1a" d="M 95.5,77.5 C 96.0306,80.8876 94.6973,82.8876 91.5,83.5C 91.762,82.0222 91.4287,80.6888 90.5,79.5C 85.2549,82.039 80.0883,84.7057 75,87.5C 74.5065,85.8659 74.3398,84.1992 74.5,82.5C 75.7206,81.9717 76.8873,81.305 78,80.5C 77.9519,77.4315 79.1186,75.0982 81.5,73.5C 82.2978,75.0777 82.7978,76.7444 83,78.5C 85.4206,77.0394 87.9206,75.7061 90.5,74.5C 91.1667,75.8333 91.8333,77.1667 92.5,78.5C 93.4168,77.8728 94.4168,77.5394 95.5,77.5 Z"/></g>
<g><path style="opacity:1" fill="#735339" d="M 37.5,79.5 C 40.1667,80.5 42.8333,81.5 45.5,82.5C 45.7852,84.288 45.4519,85.9547 44.5,87.5C 42.5,86.5 40.5,85.5 38.5,84.5C 37.5481,82.9547 37.2148,81.288 37.5,79.5 Z"/></g>
<g><path style="opacity:1" fill="#4c3725" d="M 111.5,79.5 C 111.785,81.288 111.452,82.9547 110.5,84.5C 108.5,85.5 106.5,86.5 104.5,87.5C 103.571,86.3112 103.238,84.9778 103.5,83.5C 105.849,81.659 108.515,80.3257 111.5,79.5 Z"/></g>
<g><path style="opacity:1" fill="#473121" d="M 7.5,54.5 C 9.2838,54.8925 10.9505,55.5592 12.5,56.5C 13.8333,57.1667 15.1667,57.8333 16.5,58.5C 16.335,61.8499 16.5017,65.1832 17,68.5C 19.4476,69.9732 21.9476,71.3065 24.5,72.5C 24.5,74.1667 24.5,75.8333 24.5,77.5C 21.9476,76.3065 19.4476,74.9732 17,73.5C 15.9737,76.5934 16.807,78.9268 19.5,80.5C 20.1667,82.5 20.8333,84.5 21.5,86.5C 22.1667,86.8333 22.8333,87.1667 23.5,87.5C 24.1667,86.1667 24.8333,84.8333 25.5,83.5C 26.1667,83.8333 26.8333,84.1667 27.5,84.5C 28.1667,86.5 28.8333,88.5 29.5,90.5C 30.4168,91.1272 31.4168,91.4606 32.5,91.5C 33.8484,92.6006 35.3484,93.6006 37,94.5C 37.4935,96.1341 37.6602,97.8008 37.5,99.5C 34.6223,97.8946 31.6223,96.5612 28.5,95.5C 26.3924,93.9409 24.0591,92.6076 21.5,91.5C 20.5481,93.0453 20.2148,94.712 20.5,96.5C 20.8948,99.5225 19.8948,100.523 17.5,99.5C 16.8333,100.833 16.1667,102.167 15.5,103.5C 14.8333,103.167 14.1667,102.833 13.5,102.5C 12.7022,104.078 12.2022,105.744 12,107.5C 10.6703,106.418 9.17028,105.751 7.5,105.5C 7.5,101.833 7.5,98.1667 7.5,94.5C 8.80678,95.1534 10.1401,95.8201 11.5,96.5C 12.1667,95.1667 12.8333,93.8333 13.5,92.5C 14.1667,92.8333 14.8333,93.1667 15.5,93.5C 16.8333,90.1667 16.8333,86.8333 15.5,83.5C 14.8333,83.1667 14.1667,82.8333 13.5,82.5C 12.6705,77.1975 12.1705,71.8642 12,66.5C 10.6703,65.4178 9.17028,64.7512 7.5,64.5C 7.5,61.1667 7.5,57.8333 7.5,54.5 Z"/></g>
<g><path style="opacity:1" fill="#3e2c1e" d="M 74.5,76.5 C 74.5,78.5 74.5,80.5 74.5,82.5C 74.3398,84.1992 74.5065,85.8659 75,87.5C 80.0883,84.7057 85.2549,82.039 90.5,79.5C 91.4287,80.6888 91.762,82.0222 91.5,83.5C 91.5,85.1667 91.5,86.8333 91.5,88.5C 91.5,88.8333 91.5,89.1667 91.5,89.5C 88.492,90.4202 85.6587,91.7535 83,93.5C 83.3647,88.8924 82.0314,87.8924 79,90.5C 78.1691,97.1915 78.3358,103.858 79.5,110.5C 80.1667,110.167 80.8333,109.833 81.5,109.5C 81.8333,111.167 82.1667,112.833 82.5,114.5C 80.7205,118.316 79.0538,122.316 77.5,126.5C 76.5832,127.127 75.5832,127.461 74.5,127.5C 72.847,127.34 71.5137,126.674 70.5,125.5C 70.1052,122.477 71.1052,121.477 73.5,122.5C 74.4941,117.544 74.8275,112.544 74.5,107.5C 74.6659,102.489 74.4993,97.4889 74,92.5C 72.8873,91.695 71.7206,91.0283 70.5,90.5C 67.1642,89.4773 65.6642,87.144 66,83.5C 62.956,82.1971 61.7893,79.8638 62.5,76.5C 65.0524,77.6935 67.5524,79.0268 70,80.5C 70.2022,78.7444 70.7022,77.0777 71.5,75.5C 72.4168,76.1272 73.4168,76.4606 74.5,76.5 Z"/></g>
<g><path style="opacity:1" fill="#373837" d="M 95.5,91.5 C 94.4863,92.6737 93.153,93.3404 91.5,93.5C 91.5,92.1667 91.5,90.8333 91.5,89.5C 91.5,89.1667 91.5,88.8333 91.5,88.5C 94.5367,86.8141 95.87,87.8141 95.5,91.5 Z"/></g>
<g><path style="opacity:1" fill="#373837" d="M 132.5,93.5 C 132.5,91.8333 132.5,90.1667 132.5,88.5C 133.583,88.4606 134.583,88.1272 135.5,87.5C 137.042,90.8165 136.042,92.8165 132.5,93.5 Z"/></g>
<g><path style="opacity:1" fill="#634730" d="M 49.5,85.5 C 56.8319,87.2353 59.3319,91.902 57,99.5C 53.9686,96.8924 52.6353,97.8924 53,102.5C 50.6667,101.167 48.3333,99.8333 46,98.5C 44.6858,93.8849 45.6858,92.8849 49,95.5C 49.4983,92.1832 49.665,88.8499 49.5,85.5 Z"/></g>
<g><path style="opacity:1" fill="#422f21" d="M 95.5,102.5 C 95.6602,100.801 95.4935,99.1341 95,97.5C 91.2454,99.6275 87.4121,101.628 83.5,103.5C 82.3691,101.926 82.2025,100.259 83,98.5C 85.9788,96.933 88.8121,95.2663 91.5,93.5C 93.153,93.3404 94.4863,92.6737 95.5,91.5C 96.5832,91.4606 97.5832,91.1272 98.5,90.5C 98.8333,92.1667 99.1667,93.8333 99.5,95.5C 100.268,99.1778 98.9351,101.511 95.5,102.5 Z"/></g>
<g><path style="opacity:1" fill="#735339" d="M 28.5,95.5 C 28.762,96.9778 28.4287,98.3112 27.5,99.5C 25.2612,98.2122 22.9279,97.2122 20.5,96.5C 20.2148,94.712 20.5481,93.0453 21.5,91.5C 24.0591,92.6076 26.3924,93.9409 28.5,95.5 Z"/></g>
<g><path style="opacity:1" fill="#624630" d="M 70.5,90.5 C 71.7206,91.0283 72.8873,91.695 74,92.5C 74.4993,97.4889 74.6659,102.489 74.5,107.5C 70.6247,106.916 67.9581,104.916 66.5,101.5C 66.3671,98.0933 67.5338,97.7599 70,100.5C 70.4983,97.1832 70.665,93.8499 70.5,90.5 Z"/></g>
<g><path style="opacity:1" fill="#5d422d" d="M 28.5,95.5 C 31.6223,96.5612 34.6223,97.8946 37.5,99.5C 40.9869,100.483 42.3202,102.817 41.5,106.5C 41.5,108.167 41.5,109.833 41.5,111.5C 37.7854,108.523 36.6188,109.523 38,114.5C 41.3811,115.892 42.2145,118.225 40.5,121.5C 37.9206,120.294 35.4206,118.961 33,117.5C 32.8078,115.423 32.3078,113.423 31.5,111.5C 29.5,110.5 27.5,109.5 25.5,108.5C 24.8333,106.5 24.1667,104.5 23.5,102.5C 22.8333,102.167 22.1667,101.833 21.5,101.5C 20.8333,102.833 20.1667,104.167 19.5,105.5C 18.8333,105.167 18.1667,104.833 17.5,104.5C 16.343,107.784 16.1764,111.118 17,114.5C 20.0314,117.108 21.3647,116.108 21,111.5C 23.8916,112.842 25.2249,115.175 25,118.5C 28.044,119.803 29.2107,122.136 28.5,125.5C 21.8599,122.18 15.1932,118.847 8.5,115.5C 7.51298,112.232 7.17964,108.898 7.5,105.5C 9.17028,105.751 10.6703,106.418 12,107.5C 12.2022,105.744 12.7022,104.078 13.5,102.5C 14.1667,102.833 14.8333,103.167 15.5,103.5C 16.1667,102.167 16.8333,100.833 17.5,99.5C 19.8948,100.523 20.8948,99.5225 20.5,96.5C 22.9279,97.2122 25.2612,98.2122 27.5,99.5C 28.4287,98.3112 28.762,96.9778 28.5,95.5 Z"/></g>
<g><path style="opacity:1" fill="#3f2e1f" d="M 132.5,88.5 C 132.5,90.1667 132.5,91.8333 132.5,93.5C 132.215,95.288 132.548,96.9547 133.5,98.5C 136.193,97.1534 138.86,95.8201 141.5,94.5C 141.83,101.532 141.497,108.532 140.5,115.5C 135.14,118.18 129.807,120.847 124.5,123.5C 124.34,121.801 124.506,120.134 125,118.5C 127.087,117.206 129.254,116.039 131.5,115C 132.081,114.107 132.415,113.107 132.5,112C 132.316,109.315 131.15,109.148 129,111.5C 128.192,109.421 128.359,107.421 129.5,105.5C 131.291,105.038 132.291,103.871 132.5,102C 132.33,99.4731 131.33,98.9731 129.5,100.5C 128.833,99.1667 128.167,97.8333 127.5,96.5C 126.833,96.8333 126.167,97.1667 125.5,97.5C 122.994,90.8869 124.994,86.5535 131.5,84.5C 132.429,85.6888 132.762,87.0222 132.5,88.5 Z"/></g>
<g><path style="opacity:1" fill="#423021" d="M 118.5,95.5 C 119.777,96.6936 120.444,98.3603 120.5,100.5C 120.167,102.167 119.833,103.833 119.5,105.5C 116.921,106.706 114.421,108.039 112,109.5C 111.333,106.167 111.333,102.833 112,99.5C 114.314,98.2668 116.481,96.9334 118.5,95.5 Z"/></g>
<g><path style="opacity:1" fill="#434443" d="M 41.5,106.5 C 42.8333,107.167 44.1667,107.833 45.5,108.5C 45.5,110.167 45.5,111.833 45.5,113.5C 44.1667,112.833 42.8333,112.167 41.5,111.5C 41.5,109.833 41.5,108.167 41.5,106.5 Z"/></g>
<g><path style="opacity:1" fill="#654831" d="M 45.5,113.5 C 45.5,111.833 45.5,110.167 45.5,108.5C 45.3398,106.801 45.5065,105.134 46,103.5C 48.3333,104.833 50.6667,106.167 53,107.5C 53.6667,110.833 53.6667,114.167 53,117.5C 50.5524,116.027 48.0524,114.693 45.5,113.5 Z"/></g>
<g><path style="opacity:1" fill="#644831" d="M 66.5,114.5 C 66.5,116.167 66.5,117.833 66.5,119.5C 66.8948,122.523 65.8948,123.523 63.5,122.5C 63.1912,118.667 61.3579,116 58,114.5C 57.3333,111.167 57.3333,107.833 58,104.5C 60.4206,105.961 62.9206,107.294 65.5,108.5C 66.4656,110.396 66.7989,112.396 66.5,114.5 Z"/></g>
<g><path style="opacity:1" fill="#322318" d="M 91.5,89.5 C 91.5,90.8333 91.5,92.1667 91.5,93.5C 88.8121,95.2663 85.9788,96.933 83,98.5C 82.2025,100.259 82.3691,101.926 83.5,103.5C 87.4121,101.628 91.2454,99.6275 95,97.5C 95.4935,99.1341 95.6602,100.801 95.5,102.5C 95.5,104.167 95.5,105.833 95.5,107.5C 92.8599,108.82 90.1932,110.153 87.5,111.5C 86.1667,114.833 86.1667,118.167 87.5,121.5C 91.0654,118.549 92.3988,119.549 91.5,124.5C 91.2148,126.288 91.5481,127.955 92.5,129.5C 93.1667,129.167 93.8333,128.833 94.5,128.5C 95.1667,129.833 95.8333,131.167 96.5,132.5C 97.4168,131.873 98.4168,131.539 99.5,131.5C 99.5,132.833 99.5,134.167 99.5,135.5C 98.4863,136.674 97.153,137.34 95.5,137.5C 95.8948,134.477 94.8948,133.477 92.5,134.5C 91.9517,130.722 90.285,129.888 87.5,132C 86.7511,133.734 86.2511,135.567 86,137.5C 82.956,138.803 81.7893,141.136 82.5,144.5C 79.8599,145.82 77.1932,147.153 74.5,148.5C 73.1401,147.82 71.8068,147.153 70.5,146.5C 69.6693,141.855 70.8359,140.855 74,143.5C 74.4986,139.848 74.6653,136.182 74.5,132.5C 74.5,130.833 74.5,129.167 74.5,127.5C 75.5832,127.461 76.5832,127.127 77.5,126.5C 79.0538,122.316 80.7205,118.316 82.5,114.5C 82.1667,112.833 81.8333,111.167 81.5,109.5C 80.8333,109.833 80.1667,110.167 79.5,110.5C 78.3358,103.858 78.1691,97.1915 79,90.5C 82.0314,87.8924 83.3647,88.8924 83,93.5C 85.6587,91.7535 88.492,90.4202 91.5,89.5 Z"/></g>
<g><path style="opacity:1" fill="#412f20" d="M 91.5,124.5 C 92.3988,119.549 91.0654,118.549 87.5,121.5C 86.1667,118.167 86.1667,114.833 87.5,111.5C 90.1932,110.153 92.8599,108.82 95.5,107.5C 94.6693,112.145 95.8359,113.145 99,110.5C 99.2511,108.567 99.7511,106.734 100.5,105C 102.746,103.961 104.913,102.794 107,101.5C 107.667,104.833 107.667,108.167 107,111.5C 103.794,112.82 102.794,115.153 104,118.5C 106.466,115.76 107.633,116.093 107.5,119.5C 106.302,122.63 103.968,124.63 100.5,125.5C 99.7022,123.922 99.2022,122.256 99,120.5C 96.5524,121.973 94.0524,123.307 91.5,124.5 Z"/></g>
<g><path style="opacity:1" fill="#545554" d="M 66.5,114.5 C 70.0421,115.184 71.0421,117.184 69.5,120.5C 68.5832,119.873 67.5832,119.539 66.5,119.5C 66.5,117.833 66.5,116.167 66.5,114.5 Z"/></g>
<g><path style="opacity:1" fill="#735339" d="M 49.5,120.5 C 53.3204,121.572 54.3204,123.906 52.5,127.5C 49.9711,125.937 48.9711,123.604 49.5,120.5 Z"/></g>
<g><path style="opacity:1" fill="#545554" d="M 37.5,125.5 C 37.5,126.833 37.5,128.167 37.5,129.5C 35.7162,129.107 34.0495,128.441 32.5,127.5C 31.8415,121.778 33.5081,121.111 37.5,125.5 Z"/></g>
<g><path style="opacity:1" fill="#3d2d1e" d="M 116.5,127.5 C 112.291,129.771 107.958,131.771 103.5,133.5C 103.5,132.167 103.5,130.833 103.5,129.5C 107.524,127.068 111.69,124.734 116,122.5C 116.494,124.134 116.66,125.801 116.5,127.5 Z"/></g>
<g><path style="opacity:1" fill="#735339" d="M 70.5,125.5 C 71.5137,126.674 72.847,127.34 74.5,127.5C 74.5,129.167 74.5,130.833 74.5,132.5C 72.0721,131.788 69.7388,130.788 67.5,129.5C 66.5481,131.045 66.2148,132.712 66.5,134.5C 62.6796,133.428 61.6796,131.094 63.5,127.5C 64.1667,127.833 64.8333,128.167 65.5,128.5C 66.1667,127.167 66.8333,125.833 67.5,124.5C 68.4168,125.127 69.4168,125.461 70.5,125.5 Z"/></g>
<g><path style="opacity:1" fill="#5d442d" d="M 37.5,125.5 C 41.264,126.881 44.9307,128.547 48.5,130.5C 49.4519,132.045 49.7852,133.712 49.5,135.5C 45.1822,134.008 41.1822,132.008 37.5,129.5C 37.5,128.167 37.5,126.833 37.5,125.5 Z"/></g>
<g><path style="opacity:1" fill="#5b422c" d="M 74.5,132.5 C 74.6653,136.182 74.4986,139.848 74,143.5C 70.8359,140.855 69.6693,141.855 70.5,146.5C 65.9726,144.405 61.6392,142.072 57.5,139.5C 57.238,138.022 57.5713,136.689 58.5,135.5C 61.0794,136.706 63.5794,138.039 66,139.5C 66.4935,137.866 66.6602,136.199 66.5,134.5C 66.2148,132.712 66.5481,131.045 67.5,129.5C 69.7388,130.788 72.0721,131.788 74.5,132.5 Z"/></g>
<g><path style="opacity:1" fill="#373837" d="M 103.5,129.5 C 103.5,130.833 103.5,132.167 103.5,133.5C 102.486,134.674 101.153,135.34 99.5,135.5C 99.5,134.167 99.5,132.833 99.5,131.5C 100.514,130.326 101.847,129.66 103.5,129.5 Z"/></g>
<g><path style="opacity:1" fill="#433021" d="M 95.5,137.5 C 91.3608,140.072 87.0274,142.405 82.5,144.5C 81.7893,141.136 82.956,138.803 86,137.5C 86.2511,135.567 86.7511,133.734 87.5,132C 90.285,129.888 91.9517,130.722 92.5,134.5C 94.8948,133.477 95.8948,134.477 95.5,137.5 Z"/></g>
</svg>
